<svg width="1000" height="1001" viewBox="0 0 1000 1001" fill="none" xmlns="http://www.w3.org/2000/svg">
<rect y="0.00390625" width="1000" height="1000" fill="black"/>
<path fill-rule="evenodd" clip-rule="evenodd" d="M812.603 674.917L812.59 325.111L509.358 150.024L509.371 499.968L206.219 674.978L509.464 850.042L812.412 675.15L812.603 675.261V675.039L812.71 674.978L812.603 674.917Z" fill="#64C557"/>
<path d="M206.312 325.092L509.544 150.005L509.531 500.155L206.299 675.242L206.312 325.092Z" fill="#118AB2"/>
<path d="M509.569 149.678L812.815 324.742L711.733 383.097L408.487 208.033L509.569 149.678Z" fill="#00F8B7"/>
<path d="M711.51 382.991L711.515 499.708L408.283 324.622L408.278 207.905L711.51 382.991Z" fill="#09BD8E"/>
<path d="M408.079 324.795L711.324 499.858L610.243 558.213L306.997 383.149L408.079 324.795Z" fill="#FFE3A3"/>
<path d="M611.446 558.819L611.45 675.535L308.218 500.449L308.213 383.732L611.446 558.819Z" fill="#FFBB1D"/>
<path d="M307.296 499.907L610.541 674.971L509.459 733.325L206.214 558.262L307.296 499.907Z" fill="#FF965E"/>
<path d="M509.237 733.224L509.241 849.941L206.009 674.854L206.005 558.138L509.237 733.224Z" fill="#D94C00"/>
<path d="M711.654 383.022L812.732 324.66L812.718 674.81L711.641 733.172L711.654 383.022Z" fill="#06D6A0"/>
<path d="M610.356 558.143L711.434 499.781L711.425 733.214L610.348 791.577L610.356 558.143Z" fill="#FFD166"/>
<path d="M509.066 733.256L610.144 674.894L610.139 791.611L509.062 849.973L509.066 733.256Z" fill="#F3722C"/>
</svg>
