<svg width="1000" height="1000" viewBox="0 0 1000 1000" fill="none" xmlns="http://www.w3.org/2000/svg">
  <g fill="#F5F7FB">
    <path fill-rule="evenodd" clip-rule="evenodd" d="M812.603 674.913L812.59 325.107L509.358 150.02L509.371 499.964L206.219 674.974L509.464 850.038L812.412 675.146L812.603 675.257V675.035L812.71 674.974L812.603 674.913Z"/>
    <path d="M206.312 325.088L509.544 150.001L509.531 500.151L206.299 675.238L206.312 325.088Z"/>
    <path d="M509.569 149.674L812.815 324.738L711.733 383.093L408.487 208.029L509.569 149.674Z"/>
    <path d="M711.51 382.987L711.515 499.704L408.283 324.618L408.278 207.901L711.51 382.987Z"/>
    <path d="M408.079 324.791L711.324 499.854L610.243 558.209L306.997 383.145L408.079 324.791Z"/>
    <path d="M611.446 558.815L611.45 675.531L308.218 500.445L308.213 383.728L611.446 558.815Z"/>
    <path d="M307.296 499.903L610.541 674.967L509.459 733.321L206.214 558.258L307.296 499.903Z"/>
    <path d="M509.237 733.22L509.241 849.937L206.009 674.85L206.005 558.134L509.237 733.22Z"/>
    <path d="M711.654 383.018L812.732 324.656L812.718 674.806L711.641 733.168L711.654 383.018Z"/>
    <path d="M610.356 558.139L711.434 499.777L711.425 733.21L610.348 791.573L610.356 558.139Z"/>
    <path d="M509.066 733.252L610.144 674.89L610.139 791.607L509.062 849.969L509.066 733.252Z"/>
  </g>
</svg>
